<mxfile host="Electron" modified="2025-03-28T08:49:11.800Z" agent="Mozilla/5.0 (Windows NT 10.0; Win64; x64) AppleWebKit/537.36 (KHTML, like Gecko) draw.io/21.6.8 Chrome/114.0.5735.289 Electron/25.5.0 Safari/537.36" etag="tgjWG2Auy9o4nXhBKpSp" version="21.6.8" type="device" pages="3">
  <diagram id="vFG6XWSzBA-CC0pW_W6M" name="Page-3">
    <mxGraphModel dx="4145" dy="2050" grid="1" gridSize="10" guides="1" tooltips="1" connect="1" arrows="1" fold="1" page="1" pageScale="1" pageWidth="1654" pageHeight="2336" math="0" shadow="0">
      <root>
        <mxCell id="0" />
        <mxCell id="1" parent="0" />
        <mxCell id="ojgf0q0tUQLD_QNT2ANl-1" value="Resgister &amp;amp; login" style="shape=ellipse;html=1;dashed=0;whiteSpace=wrap;perimeter=ellipsePerimeter;" parent="1" vertex="1">
          <mxGeometry x="1170" y="610" width="160" height="160" as="geometry" />
        </mxCell>
        <mxCell id="yL9c-rxS6pLRywzjNkac-2" value="Validate Credentials" style="shape=ellipse;html=1;dashed=0;whiteSpace=wrap;perimeter=ellipsePerimeter;" parent="1" vertex="1">
          <mxGeometry x="1350" y="800" width="160" height="160" as="geometry" />
        </mxCell>
        <mxCell id="yL9c-rxS6pLRywzjNkac-3" value="Requests Authentication" style="shape=ellipse;html=1;dashed=0;whiteSpace=wrap;perimeter=ellipsePerimeter;" parent="1" vertex="1">
          <mxGeometry x="1430" y="640" width="160" height="160" as="geometry" />
        </mxCell>
        <mxCell id="yL9c-rxS6pLRywzjNkac-4" value="User" style="html=1;dashed=0;whiteSpace=wrap;" parent="1" vertex="1">
          <mxGeometry x="930" y="650" width="160" height="80" as="geometry" />
        </mxCell>
        <mxCell id="yL9c-rxS6pLRywzjNkac-5" value="" style="endArrow=classic;html=1;rounded=0;" parent="1" edge="1">
          <mxGeometry width="50" height="50" relative="1" as="geometry">
            <mxPoint x="1290" y="780" as="sourcePoint" />
            <mxPoint x="1330" y="820" as="targetPoint" />
          </mxGeometry>
        </mxCell>
        <mxCell id="yL9c-rxS6pLRywzjNkac-6" value="" style="endArrow=classic;html=1;rounded=0;" parent="1" edge="1">
          <mxGeometry width="50" height="50" relative="1" as="geometry">
            <mxPoint x="1340" y="690" as="sourcePoint" />
            <mxPoint x="1400" y="710" as="targetPoint" />
          </mxGeometry>
        </mxCell>
        <mxCell id="1WWtAS3-kf3CcD75dUEp-1" value="" style="endArrow=classic;html=1;rounded=0;" parent="1" edge="1">
          <mxGeometry width="50" height="50" relative="1" as="geometry">
            <mxPoint x="1100" y="690" as="sourcePoint" />
            <mxPoint x="1160" y="690" as="targetPoint" />
          </mxGeometry>
        </mxCell>
        <mxCell id="1WWtAS3-kf3CcD75dUEp-2" value="Bank Account Management" style="shape=ellipse;html=1;dashed=0;whiteSpace=wrap;perimeter=ellipsePerimeter;" parent="1" vertex="1">
          <mxGeometry x="660" y="610" width="160" height="160" as="geometry" />
        </mxCell>
        <mxCell id="1WWtAS3-kf3CcD75dUEp-3" value="" style="endArrow=classic;html=1;rounded=0;" parent="1" edge="1">
          <mxGeometry width="50" height="50" relative="1" as="geometry">
            <mxPoint x="850" y="689.62" as="sourcePoint" />
            <mxPoint x="910" y="689.62" as="targetPoint" />
          </mxGeometry>
        </mxCell>
        <mxCell id="Ky36nwtVpWBCnHMH4MUL-1" value="Upadate Bank Account data" style="shape=ellipse;html=1;dashed=0;whiteSpace=wrap;perimeter=ellipsePerimeter;" parent="1" vertex="1">
          <mxGeometry x="380" y="780" width="160" height="160" as="geometry" />
        </mxCell>
        <mxCell id="Ky36nwtVpWBCnHMH4MUL-2" value="Validate Bank Account Details" style="shape=ellipse;html=1;dashed=0;whiteSpace=wrap;perimeter=ellipsePerimeter;" parent="1" vertex="1">
          <mxGeometry x="380" y="580" width="160" height="160" as="geometry" />
        </mxCell>
        <mxCell id="Ky36nwtVpWBCnHMH4MUL-3" value="Request Bank Account Upate" style="shape=ellipse;html=1;dashed=0;whiteSpace=wrap;perimeter=ellipsePerimeter;" parent="1" vertex="1">
          <mxGeometry x="380" y="380" width="160" height="160" as="geometry" />
        </mxCell>
        <mxCell id="Ky36nwtVpWBCnHMH4MUL-4" value="" style="endArrow=classic;html=1;rounded=0;" parent="1" edge="1">
          <mxGeometry width="50" height="50" relative="1" as="geometry">
            <mxPoint x="570" y="820" as="sourcePoint" />
            <mxPoint x="670" y="780" as="targetPoint" />
          </mxGeometry>
        </mxCell>
        <mxCell id="Ky36nwtVpWBCnHMH4MUL-5" value="" style="endArrow=classic;html=1;rounded=0;" parent="1" edge="1">
          <mxGeometry width="50" height="50" relative="1" as="geometry">
            <mxPoint x="580" y="670" as="sourcePoint" />
            <mxPoint x="640" y="690" as="targetPoint" />
          </mxGeometry>
        </mxCell>
        <mxCell id="Ky36nwtVpWBCnHMH4MUL-6" value="" style="endArrow=classic;html=1;rounded=0;" parent="1" edge="1">
          <mxGeometry width="50" height="50" relative="1" as="geometry">
            <mxPoint x="560" y="470" as="sourcePoint" />
            <mxPoint x="690" y="610" as="targetPoint" />
          </mxGeometry>
        </mxCell>
        <mxCell id="Ky36nwtVpWBCnHMH4MUL-7" value="Select Payment Method" style="shape=ellipse;html=1;dashed=0;whiteSpace=wrap;perimeter=ellipsePerimeter;" parent="1" vertex="1">
          <mxGeometry x="1400" y="1370" width="160" height="160" as="geometry" />
        </mxCell>
        <mxCell id="Ky36nwtVpWBCnHMH4MUL-8" value="Verifies UPI Pin" style="shape=ellipse;html=1;dashed=0;whiteSpace=wrap;perimeter=ellipsePerimeter;" parent="1" vertex="1">
          <mxGeometry x="1400" y="1170" width="160" height="160" as="geometry" />
        </mxCell>
        <mxCell id="Ky36nwtVpWBCnHMH4MUL-9" value="Initiate Payment" style="shape=ellipse;html=1;dashed=0;whiteSpace=wrap;perimeter=ellipsePerimeter;" parent="1" vertex="1">
          <mxGeometry x="1400" y="970" width="160" height="160" as="geometry" />
        </mxCell>
        <mxCell id="Ky36nwtVpWBCnHMH4MUL-10" value="" style="endArrow=classic;html=1;rounded=0;" parent="1" edge="1">
          <mxGeometry width="50" height="50" relative="1" as="geometry">
            <mxPoint x="1290" y="1120" as="sourcePoint" />
            <mxPoint x="1390" y="1080" as="targetPoint" />
          </mxGeometry>
        </mxCell>
        <mxCell id="Ky36nwtVpWBCnHMH4MUL-11" value="" style="endArrow=classic;html=1;rounded=0;" parent="1" edge="1">
          <mxGeometry width="50" height="50" relative="1" as="geometry">
            <mxPoint x="1330" y="1230" as="sourcePoint" />
            <mxPoint x="1390" y="1250" as="targetPoint" />
          </mxGeometry>
        </mxCell>
        <mxCell id="Ky36nwtVpWBCnHMH4MUL-12" value="" style="endArrow=classic;html=1;rounded=0;" parent="1" edge="1">
          <mxGeometry width="50" height="50" relative="1" as="geometry">
            <mxPoint x="1260" y="1310" as="sourcePoint" />
            <mxPoint x="1390" y="1450" as="targetPoint" />
          </mxGeometry>
        </mxCell>
        <mxCell id="Ky36nwtVpWBCnHMH4MUL-13" value="Make Payment" style="shape=ellipse;html=1;dashed=0;whiteSpace=wrap;perimeter=ellipsePerimeter;" parent="1" vertex="1">
          <mxGeometry x="1110" y="1130" width="160" height="160" as="geometry" />
        </mxCell>
        <mxCell id="Ky36nwtVpWBCnHMH4MUL-14" value="" style="endArrow=classic;html=1;rounded=0;" parent="1" edge="1">
          <mxGeometry width="50" height="50" relative="1" as="geometry">
            <mxPoint x="1170" y="1110" as="sourcePoint" />
            <mxPoint x="1070" y="740" as="targetPoint" />
          </mxGeometry>
        </mxCell>
        <mxCell id="Ky36nwtVpWBCnHMH4MUL-16" value="Process Transaction" style="shape=ellipse;html=1;dashed=0;whiteSpace=wrap;perimeter=ellipsePerimeter;" parent="1" vertex="1">
          <mxGeometry x="1410" y="1580" width="160" height="160" as="geometry" />
        </mxCell>
        <mxCell id="Ky36nwtVpWBCnHMH4MUL-17" value="Store Transaction" style="html=1;dashed=0;whiteSpace=wrap;shape=partialRectangle;right=0;left=0;" parent="1" vertex="1">
          <mxGeometry x="900" y="1400" width="160" height="80" as="geometry" />
        </mxCell>
        <mxCell id="Ky36nwtVpWBCnHMH4MUL-18" value="" style="endArrow=classic;html=1;rounded=0;" parent="1" edge="1">
          <mxGeometry width="50" height="50" relative="1" as="geometry">
            <mxPoint x="1170" y="1300" as="sourcePoint" />
            <mxPoint x="1070" y="1390" as="targetPoint" />
          </mxGeometry>
        </mxCell>
        <mxCell id="Ky36nwtVpWBCnHMH4MUL-19" value="" style="endArrow=classic;html=1;rounded=0;" parent="1" edge="1">
          <mxGeometry width="50" height="50" relative="1" as="geometry">
            <mxPoint x="1210" y="1300" as="sourcePoint" />
            <mxPoint x="1390" y="1628" as="targetPoint" />
          </mxGeometry>
        </mxCell>
        <mxCell id="Ky36nwtVpWBCnHMH4MUL-21" value="Transaction Management" style="shape=ellipse;html=1;dashed=0;whiteSpace=wrap;perimeter=ellipsePerimeter;" parent="1" vertex="1">
          <mxGeometry x="640" y="1210" width="160" height="160" as="geometry" />
        </mxCell>
        <mxCell id="Ky36nwtVpWBCnHMH4MUL-22" value="" style="endArrow=classic;html=1;rounded=0;" parent="1" edge="1">
          <mxGeometry width="50" height="50" relative="1" as="geometry">
            <mxPoint x="760" y="1190" as="sourcePoint" />
            <mxPoint x="960" y="760" as="targetPoint" />
          </mxGeometry>
        </mxCell>
        <mxCell id="Ky36nwtVpWBCnHMH4MUL-23" value="Retrieve Transaction Data" style="shape=ellipse;html=1;dashed=0;whiteSpace=wrap;perimeter=ellipsePerimeter;" parent="1" vertex="1">
          <mxGeometry x="360" y="1380" width="160" height="160" as="geometry" />
        </mxCell>
        <mxCell id="Ky36nwtVpWBCnHMH4MUL-24" value="Validate Request" style="shape=ellipse;html=1;dashed=0;whiteSpace=wrap;perimeter=ellipsePerimeter;" parent="1" vertex="1">
          <mxGeometry x="360" y="1180" width="160" height="160" as="geometry" />
        </mxCell>
        <mxCell id="Ky36nwtVpWBCnHMH4MUL-25" value="Request Transaction Operation" style="shape=ellipse;html=1;dashed=0;whiteSpace=wrap;perimeter=ellipsePerimeter;" parent="1" vertex="1">
          <mxGeometry x="360" y="980" width="160" height="160" as="geometry" />
        </mxCell>
        <mxCell id="Ky36nwtVpWBCnHMH4MUL-26" value="" style="endArrow=classic;html=1;rounded=0;" parent="1" edge="1">
          <mxGeometry width="50" height="50" relative="1" as="geometry">
            <mxPoint x="550" y="1420" as="sourcePoint" />
            <mxPoint x="650" y="1380" as="targetPoint" />
          </mxGeometry>
        </mxCell>
        <mxCell id="Ky36nwtVpWBCnHMH4MUL-27" value="" style="endArrow=classic;html=1;rounded=0;" parent="1" edge="1">
          <mxGeometry width="50" height="50" relative="1" as="geometry">
            <mxPoint x="560" y="1270" as="sourcePoint" />
            <mxPoint x="620" y="1290" as="targetPoint" />
          </mxGeometry>
        </mxCell>
        <mxCell id="Ky36nwtVpWBCnHMH4MUL-28" value="" style="endArrow=classic;html=1;rounded=0;" parent="1" edge="1">
          <mxGeometry width="50" height="50" relative="1" as="geometry">
            <mxPoint x="540" y="1070" as="sourcePoint" />
            <mxPoint x="670" y="1210" as="targetPoint" />
          </mxGeometry>
        </mxCell>
        <mxCell id="Ky36nwtVpWBCnHMH4MUL-29" value="" style="endArrow=classic;html=1;rounded=0;" parent="1" edge="1">
          <mxGeometry width="50" height="50" relative="1" as="geometry">
            <mxPoint x="820" y="1310" as="sourcePoint" />
            <mxPoint x="910" y="1390" as="targetPoint" />
          </mxGeometry>
        </mxCell>
        <mxCell id="Ky36nwtVpWBCnHMH4MUL-31" value="Profile Management&amp;nbsp;" style="shape=ellipse;html=1;dashed=0;whiteSpace=wrap;perimeter=ellipsePerimeter;" parent="1" vertex="1">
          <mxGeometry x="970" y="320" width="160" height="160" as="geometry" />
        </mxCell>
        <mxCell id="Ky36nwtVpWBCnHMH4MUL-32" value="Request Profile Operation" style="shape=ellipse;html=1;dashed=0;whiteSpace=wrap;perimeter=ellipsePerimeter;" parent="1" vertex="1">
          <mxGeometry x="1190" y="120" width="160" height="160" as="geometry" />
        </mxCell>
        <mxCell id="Ky36nwtVpWBCnHMH4MUL-33" value="Validate Profile Opeataion" style="shape=ellipse;html=1;dashed=0;whiteSpace=wrap;perimeter=ellipsePerimeter;" parent="1" vertex="1">
          <mxGeometry x="970" y="50" width="160" height="160" as="geometry" />
        </mxCell>
        <mxCell id="Ky36nwtVpWBCnHMH4MUL-34" value="Request Bank Account Upate" style="shape=ellipse;html=1;dashed=0;whiteSpace=wrap;perimeter=ellipsePerimeter;" parent="1" vertex="1">
          <mxGeometry x="640" y="160" width="160" height="160" as="geometry" />
        </mxCell>
        <mxCell id="Ky36nwtVpWBCnHMH4MUL-35" value="" style="endArrow=classic;html=1;rounded=0;" parent="1" edge="1">
          <mxGeometry width="50" height="50" relative="1" as="geometry">
            <mxPoint x="1260" y="290" as="sourcePoint" />
            <mxPoint x="1140" y="370" as="targetPoint" />
          </mxGeometry>
        </mxCell>
        <mxCell id="Ky36nwtVpWBCnHMH4MUL-36" value="" style="endArrow=classic;html=1;rounded=0;" parent="1" edge="1">
          <mxGeometry width="50" height="50" relative="1" as="geometry">
            <mxPoint x="770" y="330" as="sourcePoint" />
            <mxPoint x="950" y="390" as="targetPoint" />
          </mxGeometry>
        </mxCell>
        <mxCell id="Ky36nwtVpWBCnHMH4MUL-37" value="" style="endArrow=classic;html=1;rounded=0;" parent="1" edge="1">
          <mxGeometry width="50" height="50" relative="1" as="geometry">
            <mxPoint x="1049.63" y="230" as="sourcePoint" />
            <mxPoint x="1050" y="300" as="targetPoint" />
          </mxGeometry>
        </mxCell>
        <mxCell id="Ky36nwtVpWBCnHMH4MUL-40" value="" style="endArrow=classic;html=1;rounded=0;" parent="1" edge="1">
          <mxGeometry width="50" height="50" relative="1" as="geometry">
            <mxPoint x="1370" y="520" as="sourcePoint" />
            <mxPoint x="1150" y="430" as="targetPoint" />
          </mxGeometry>
        </mxCell>
        <mxCell id="Ky36nwtVpWBCnHMH4MUL-41" value="&#xa;&lt;span style=&quot;color: rgb(0, 0, 0); font-family: Helvetica; font-size: 12px; font-style: normal; font-variant-ligatures: normal; font-variant-caps: normal; font-weight: 400; letter-spacing: normal; orphans: 2; text-align: center; text-indent: 0px; text-transform: none; widows: 2; word-spacing: 0px; -webkit-text-stroke-width: 0px; background-color: rgb(251, 251, 251); text-decoration-thickness: initial; text-decoration-style: initial; text-decoration-color: initial; float: none; display: inline !important;&quot;&gt;Stores user data&lt;/span&gt;&#xa;&#xa;" style="html=1;dashed=0;whiteSpace=wrap;shape=partialRectangle;right=0;left=0;" parent="1" vertex="1">
          <mxGeometry x="1400" y="480" width="140" height="80" as="geometry" />
        </mxCell>
        <mxCell id="Ky36nwtVpWBCnHMH4MUL-42" value="" style="endArrow=classic;html=1;rounded=0;" parent="1" edge="1">
          <mxGeometry width="50" height="50" relative="1" as="geometry">
            <mxPoint x="1340" y="620" as="sourcePoint" />
            <mxPoint x="1430" y="580" as="targetPoint" />
          </mxGeometry>
        </mxCell>
        <mxCell id="Ky36nwtVpWBCnHMH4MUL-44" value="Admin" style="html=1;dashed=0;whiteSpace=wrap;" parent="1" vertex="1">
          <mxGeometry x="880" y="1710" width="160" height="80" as="geometry" />
        </mxCell>
        <mxCell id="Ky36nwtVpWBCnHMH4MUL-45" value="Admin Operations" style="shape=ellipse;html=1;dashed=0;whiteSpace=wrap;perimeter=ellipsePerimeter;" parent="1" vertex="1">
          <mxGeometry x="890" y="1900" width="160" height="160" as="geometry" />
        </mxCell>
        <mxCell id="Ky36nwtVpWBCnHMH4MUL-46" value="Process User Management" style="shape=ellipse;html=1;dashed=0;whiteSpace=wrap;perimeter=ellipsePerimeter;" parent="1" vertex="1">
          <mxGeometry x="580" y="2070" width="160" height="160" as="geometry" />
        </mxCell>
        <mxCell id="Ky36nwtVpWBCnHMH4MUL-47" value="Recieve Admin Request" style="shape=ellipse;html=1;dashed=0;whiteSpace=wrap;perimeter=ellipsePerimeter;" parent="1" vertex="1">
          <mxGeometry x="580" y="1880" width="160" height="160" as="geometry" />
        </mxCell>
        <mxCell id="Ky36nwtVpWBCnHMH4MUL-48" value="Generate Reports" style="shape=ellipse;html=1;dashed=0;whiteSpace=wrap;perimeter=ellipsePerimeter;" parent="1" vertex="1">
          <mxGeometry x="1160" y="2060" width="160" height="160" as="geometry" />
        </mxCell>
        <mxCell id="Ky36nwtVpWBCnHMH4MUL-49" value="" style="endArrow=classic;html=1;rounded=0;" parent="1" edge="1">
          <mxGeometry width="50" height="50" relative="1" as="geometry">
            <mxPoint x="750" y="2090" as="sourcePoint" />
            <mxPoint x="900" y="2050" as="targetPoint" />
          </mxGeometry>
        </mxCell>
        <mxCell id="Ky36nwtVpWBCnHMH4MUL-50" value="" style="endArrow=classic;html=1;rounded=0;" parent="1" edge="1">
          <mxGeometry width="50" height="50" relative="1" as="geometry">
            <mxPoint x="760" y="1970" as="sourcePoint" />
            <mxPoint x="870" y="1975" as="targetPoint" />
          </mxGeometry>
        </mxCell>
        <mxCell id="Ky36nwtVpWBCnHMH4MUL-51" value="" style="endArrow=classic;html=1;rounded=0;" parent="1" edge="1">
          <mxGeometry width="50" height="50" relative="1" as="geometry">
            <mxPoint x="1156.41" y="2121.45" as="sourcePoint" />
            <mxPoint x="1049.9974210585149" y="2039.9952354317695" as="targetPoint" />
          </mxGeometry>
        </mxCell>
        <mxCell id="Ky36nwtVpWBCnHMH4MUL-52" value="" style="endArrow=classic;html=1;rounded=0;" parent="1" edge="1">
          <mxGeometry width="50" height="50" relative="1" as="geometry">
            <mxPoint x="970" y="1880" as="sourcePoint" />
            <mxPoint x="970" y="1800" as="targetPoint" />
          </mxGeometry>
        </mxCell>
        <mxCell id="Ky36nwtVpWBCnHMH4MUL-53" value="Send Response" style="shape=ellipse;html=1;dashed=0;whiteSpace=wrap;perimeter=ellipsePerimeter;" parent="1" vertex="1">
          <mxGeometry x="1210" y="1820" width="160" height="160" as="geometry" />
        </mxCell>
        <mxCell id="Ky36nwtVpWBCnHMH4MUL-54" value="" style="endArrow=classic;html=1;rounded=0;" parent="1" edge="1">
          <mxGeometry width="50" height="50" relative="1" as="geometry">
            <mxPoint x="1190" y="1940" as="sourcePoint" />
            <mxPoint x="1090" y="1960" as="targetPoint" />
          </mxGeometry>
        </mxCell>
        <mxCell id="Ky36nwtVpWBCnHMH4MUL-55" value="Monitor transactions" style="shape=ellipse;html=1;dashed=0;whiteSpace=wrap;perimeter=ellipsePerimeter;" parent="1" vertex="1">
          <mxGeometry x="900" y="2140" width="160" height="160" as="geometry" />
        </mxCell>
        <mxCell id="Ky36nwtVpWBCnHMH4MUL-56" value="" style="endArrow=classic;html=1;rounded=0;" parent="1" edge="1">
          <mxGeometry width="50" height="50" relative="1" as="geometry">
            <mxPoint x="980" y="2130" as="sourcePoint" />
            <mxPoint x="980" y="2070" as="targetPoint" />
          </mxGeometry>
        </mxCell>
      </root>
    </mxGraphModel>
  </diagram>
  <diagram id="NDcg29OjXH1BAil9kqRM" name="Page-2">
    <mxGraphModel dx="965" dy="1034" grid="1" gridSize="10" guides="1" tooltips="1" connect="1" arrows="1" fold="1" page="1" pageScale="1" pageWidth="1654" pageHeight="2336" math="0" shadow="0">
      <root>
        <mxCell id="0" />
        <mxCell id="1" parent="0" />
        <mxCell id="HuvrCBPb7pK9d5zRy_iR-1" value="Transaction Management&lt;br&gt;&lt;br&gt;3" style="shape=ellipse;html=1;dashed=0;whiteSpace=wrap;perimeter=ellipsePerimeter;" parent="1" vertex="1">
          <mxGeometry x="520" y="840" width="160" height="160" as="geometry" />
        </mxCell>
        <mxCell id="SBQu-W1i-o_JNflYCq96-1" value="Admin Operations&lt;br&gt;&lt;br&gt;5" style="shape=ellipse;html=1;dashed=0;whiteSpace=wrap;perimeter=ellipsePerimeter;" parent="1" vertex="1">
          <mxGeometry x="760" y="560" width="160" height="160" as="geometry" />
        </mxCell>
        <mxCell id="SBQu-W1i-o_JNflYCq96-2" value="Make Payment&lt;br&gt;&lt;br&gt;2" style="shape=ellipse;html=1;dashed=0;whiteSpace=wrap;perimeter=ellipsePerimeter;" parent="1" vertex="1">
          <mxGeometry x="520" y="640" width="160" height="160" as="geometry" />
        </mxCell>
        <mxCell id="SBQu-W1i-o_JNflYCq96-3" value="Register&amp;nbsp; &amp;amp; LogIn&lt;br&gt;&lt;br&gt;0" style="shape=ellipse;html=1;dashed=0;whiteSpace=wrap;perimeter=ellipsePerimeter;" parent="1" vertex="1">
          <mxGeometry x="500" y="210" width="160" height="160" as="geometry" />
        </mxCell>
        <mxCell id="SBQu-W1i-o_JNflYCq96-5" value="Bank Account Management&lt;br&gt;&lt;br&gt;1" style="shape=ellipse;html=1;dashed=0;whiteSpace=wrap;perimeter=ellipsePerimeter;" parent="1" vertex="1">
          <mxGeometry x="520" y="440" width="160" height="160" as="geometry" />
        </mxCell>
        <mxCell id="SBQu-W1i-o_JNflYCq96-6" value="User" style="html=1;dashed=0;whiteSpace=wrap;" parent="1" vertex="1">
          <mxGeometry x="90" y="560" width="170" height="80" as="geometry" />
        </mxCell>
        <mxCell id="SBQu-W1i-o_JNflYCq96-7" value="Admin" style="html=1;dashed=0;whiteSpace=wrap;" parent="1" vertex="1">
          <mxGeometry x="1080" y="600" width="170" height="80" as="geometry" />
        </mxCell>
        <mxCell id="SBQu-W1i-o_JNflYCq96-8" value="" style="endArrow=classic;html=1;rounded=0;" parent="1" edge="1">
          <mxGeometry relative="1" as="geometry">
            <mxPoint x="260" y="540" as="sourcePoint" />
            <mxPoint x="490" y="320" as="targetPoint" />
          </mxGeometry>
        </mxCell>
        <mxCell id="SBQu-W1i-o_JNflYCq96-9" value="Login Credentials" style="edgeLabel;resizable=0;html=1;align=center;verticalAlign=middle;" parent="SBQu-W1i-o_JNflYCq96-8" connectable="0" vertex="1">
          <mxGeometry relative="1" as="geometry" />
        </mxCell>
        <mxCell id="SBQu-W1i-o_JNflYCq96-10" value="" style="endArrow=classic;html=1;rounded=0;" parent="1" edge="1">
          <mxGeometry relative="1" as="geometry">
            <mxPoint x="520" y="350" as="sourcePoint" />
            <mxPoint x="300" y="550" as="targetPoint" />
            <Array as="points">
              <mxPoint x="390" y="470" />
            </Array>
          </mxGeometry>
        </mxCell>
        <mxCell id="SBQu-W1i-o_JNflYCq96-11" value="Login Confirmation" style="edgeLabel;resizable=0;html=1;align=center;verticalAlign=middle;" parent="SBQu-W1i-o_JNflYCq96-10" connectable="0" vertex="1">
          <mxGeometry relative="1" as="geometry" />
        </mxCell>
        <mxCell id="SBQu-W1i-o_JNflYCq96-12" value="" style="endArrow=classic;html=1;rounded=0;" parent="1" edge="1">
          <mxGeometry relative="1" as="geometry">
            <mxPoint x="330" y="580" as="sourcePoint" />
            <mxPoint x="510" y="520" as="targetPoint" />
          </mxGeometry>
        </mxCell>
        <mxCell id="SBQu-W1i-o_JNflYCq96-13" value="Bank Details" style="edgeLabel;resizable=0;html=1;align=center;verticalAlign=middle;" parent="SBQu-W1i-o_JNflYCq96-12" connectable="0" vertex="1">
          <mxGeometry relative="1" as="geometry" />
        </mxCell>
        <mxCell id="SBQu-W1i-o_JNflYCq96-14" value="" style="endArrow=classic;html=1;rounded=0;" parent="1" edge="1">
          <mxGeometry relative="1" as="geometry">
            <mxPoint x="510" y="560" as="sourcePoint" />
            <mxPoint x="330" y="620" as="targetPoint" />
          </mxGeometry>
        </mxCell>
        <mxCell id="SBQu-W1i-o_JNflYCq96-15" value="Confirmation" style="edgeLabel;resizable=0;html=1;align=center;verticalAlign=middle;" parent="SBQu-W1i-o_JNflYCq96-14" connectable="0" vertex="1">
          <mxGeometry relative="1" as="geometry" />
        </mxCell>
        <mxCell id="SBQu-W1i-o_JNflYCq96-16" value="" style="endArrow=classic;html=1;rounded=0;" parent="1" edge="1">
          <mxGeometry relative="1" as="geometry">
            <mxPoint x="320" y="650" as="sourcePoint" />
            <mxPoint x="510" y="700" as="targetPoint" />
          </mxGeometry>
        </mxCell>
        <mxCell id="SBQu-W1i-o_JNflYCq96-17" value="Payment Request" style="edgeLabel;resizable=0;html=1;align=center;verticalAlign=middle;" parent="SBQu-W1i-o_JNflYCq96-16" connectable="0" vertex="1">
          <mxGeometry relative="1" as="geometry" />
        </mxCell>
        <mxCell id="SBQu-W1i-o_JNflYCq96-18" value="" style="endArrow=classic;html=1;rounded=0;" parent="1" edge="1">
          <mxGeometry relative="1" as="geometry">
            <mxPoint x="510" y="730" as="sourcePoint" />
            <mxPoint x="300" y="660" as="targetPoint" />
          </mxGeometry>
        </mxCell>
        <mxCell id="SBQu-W1i-o_JNflYCq96-19" value="Payment Confirmation" style="edgeLabel;resizable=0;html=1;align=center;verticalAlign=middle;" parent="SBQu-W1i-o_JNflYCq96-18" connectable="0" vertex="1">
          <mxGeometry relative="1" as="geometry" />
        </mxCell>
        <mxCell id="SBQu-W1i-o_JNflYCq96-20" value="" style="endArrow=classic;html=1;rounded=0;" parent="1" edge="1">
          <mxGeometry relative="1" as="geometry">
            <mxPoint x="480" y="900" as="sourcePoint" />
            <mxPoint x="220" y="680" as="targetPoint" />
          </mxGeometry>
        </mxCell>
        <mxCell id="SBQu-W1i-o_JNflYCq96-21" value="&lt;span style=&quot;color: rgb(0, 0, 0); font-family: Helvetica; font-size: 11px; font-style: normal; font-variant-ligatures: normal; font-variant-caps: normal; font-weight: 400; letter-spacing: normal; orphans: 2; text-align: center; text-indent: 0px; text-transform: none; widows: 2; word-spacing: 0px; -webkit-text-stroke-width: 0px; background-color: rgb(255, 255, 255); text-decoration-thickness: initial; text-decoration-style: initial; text-decoration-color: initial; float: none; display: inline !important;&quot;&gt;Balance/History Response&lt;/span&gt;" style="edgeLabel;resizable=0;html=1;align=center;verticalAlign=middle;" parent="SBQu-W1i-o_JNflYCq96-20" connectable="0" vertex="1">
          <mxGeometry relative="1" as="geometry" />
        </mxCell>
        <mxCell id="SBQu-W1i-o_JNflYCq96-22" value="" style="endArrow=classic;html=1;rounded=0;" parent="1" edge="1">
          <mxGeometry relative="1" as="geometry">
            <mxPoint x="230" y="660" as="sourcePoint" />
            <mxPoint x="510" y="870" as="targetPoint" />
          </mxGeometry>
        </mxCell>
        <mxCell id="SBQu-W1i-o_JNflYCq96-23" value="Balance/History Request" style="edgeLabel;resizable=0;html=1;align=center;verticalAlign=middle;" parent="SBQu-W1i-o_JNflYCq96-22" connectable="0" vertex="1">
          <mxGeometry relative="1" as="geometry">
            <mxPoint x="-1" as="offset" />
          </mxGeometry>
        </mxCell>
        <mxCell id="SBQu-W1i-o_JNflYCq96-28" value="" style="endArrow=classic;html=1;rounded=0;" parent="1" edge="1">
          <mxGeometry relative="1" as="geometry">
            <mxPoint x="1070" y="620" as="sourcePoint" />
            <mxPoint x="930" y="640" as="targetPoint" />
          </mxGeometry>
        </mxCell>
        <mxCell id="SBQu-W1i-o_JNflYCq96-29" value="Admin Request" style="edgeLabel;resizable=0;html=1;align=center;verticalAlign=middle;" parent="SBQu-W1i-o_JNflYCq96-28" connectable="0" vertex="1">
          <mxGeometry relative="1" as="geometry" />
        </mxCell>
        <mxCell id="SBQu-W1i-o_JNflYCq96-30" value="" style="endArrow=classic;html=1;rounded=0;" parent="1" edge="1">
          <mxGeometry relative="1" as="geometry">
            <mxPoint x="930" y="660" as="sourcePoint" />
            <mxPoint x="1080" y="650" as="targetPoint" />
          </mxGeometry>
        </mxCell>
        <mxCell id="SBQu-W1i-o_JNflYCq96-31" value="Admin Response" style="edgeLabel;resizable=0;html=1;align=center;verticalAlign=middle;" parent="SBQu-W1i-o_JNflYCq96-30" connectable="0" vertex="1">
          <mxGeometry relative="1" as="geometry" />
        </mxCell>
        <mxCell id="iE8HfdmbKowTlCCOcocj-1" value="Profile Management&lt;br&gt;&lt;br&gt;4" style="shape=ellipse;html=1;dashed=0;whiteSpace=wrap;perimeter=ellipsePerimeter;" vertex="1" parent="1">
          <mxGeometry x="190" y="890" width="160" height="160" as="geometry" />
        </mxCell>
        <mxCell id="iE8HfdmbKowTlCCOcocj-2" value="" style="endArrow=classic;html=1;rounded=0;" edge="1" parent="1">
          <mxGeometry relative="1" as="geometry">
            <mxPoint x="170" y="650" as="sourcePoint" />
            <mxPoint x="290" y="880" as="targetPoint" />
          </mxGeometry>
        </mxCell>
        <mxCell id="iE8HfdmbKowTlCCOcocj-3" value="&lt;div&gt;Profile Update/Feedback Request&lt;/div&gt;" style="edgeLabel;resizable=0;html=1;align=center;verticalAlign=middle;" connectable="0" vertex="1" parent="iE8HfdmbKowTlCCOcocj-2">
          <mxGeometry relative="1" as="geometry">
            <mxPoint x="55" as="offset" />
          </mxGeometry>
        </mxCell>
        <mxCell id="iE8HfdmbKowTlCCOcocj-4" value="" style="endArrow=classic;html=1;rounded=0;" edge="1" parent="1">
          <mxGeometry relative="1" as="geometry">
            <mxPoint x="230" y="880" as="sourcePoint" />
            <mxPoint x="140" y="650" as="targetPoint" />
          </mxGeometry>
        </mxCell>
        <mxCell id="iE8HfdmbKowTlCCOcocj-5" value="&lt;div&gt;Profile Update/Feedback Response&lt;/div&gt;" style="edgeLabel;resizable=0;html=1;align=center;verticalAlign=middle;" connectable="0" vertex="1" parent="iE8HfdmbKowTlCCOcocj-4">
          <mxGeometry relative="1" as="geometry">
            <mxPoint x="-55" y="-45" as="offset" />
          </mxGeometry>
        </mxCell>
      </root>
    </mxGraphModel>
  </diagram>
  <diagram name="Page-1" id="y19u4iK_HGs5I03r72ck">
    <mxGraphModel dx="1734" dy="836" grid="1" gridSize="10" guides="1" tooltips="1" connect="1" arrows="1" fold="1" page="1" pageScale="1" pageWidth="1654" pageHeight="2336" math="0" shadow="0">
      <root>
        <mxCell id="0" />
        <mxCell id="1" parent="0" />
        <mxCell id="kl3WKUfcu_TZl0TuVzoU-1" value="Online Payment Platform" style="shape=ellipse;html=1;dashed=0;whiteSpace=wrap;perimeter=ellipsePerimeter;" parent="1" vertex="1">
          <mxGeometry x="600" y="320" width="160" height="160" as="geometry" />
        </mxCell>
        <mxCell id="kl3WKUfcu_TZl0TuVzoU-2" value="User" style="html=1;dashed=0;whiteSpace=wrap;" parent="1" vertex="1">
          <mxGeometry x="180" y="360" width="160" height="80" as="geometry" />
        </mxCell>
        <mxCell id="kl3WKUfcu_TZl0TuVzoU-3" value="Admin" style="html=1;dashed=0;whiteSpace=wrap;" parent="1" vertex="1">
          <mxGeometry x="1040" y="360" width="160" height="80" as="geometry" />
        </mxCell>
        <mxCell id="8q71euT7KvG-gEpUxB3Z-5" value="" style="endArrow=classic;html=1;rounded=0;entryX=0.021;entryY=0.389;entryDx=0;entryDy=0;entryPerimeter=0;exitX=1;exitY=0.25;exitDx=0;exitDy=0;" parent="1" source="kl3WKUfcu_TZl0TuVzoU-2" target="kl3WKUfcu_TZl0TuVzoU-1" edge="1">
          <mxGeometry relative="1" as="geometry">
            <mxPoint x="320" y="380" as="sourcePoint" />
            <mxPoint x="420" y="380" as="targetPoint" />
          </mxGeometry>
        </mxCell>
        <mxCell id="8q71euT7KvG-gEpUxB3Z-6" value="User Inputs" style="edgeLabel;resizable=0;html=1;align=center;verticalAlign=middle;" parent="8q71euT7KvG-gEpUxB3Z-5" connectable="0" vertex="1">
          <mxGeometry relative="1" as="geometry" />
        </mxCell>
        <mxCell id="8q71euT7KvG-gEpUxB3Z-8" value="" style="endArrow=classic;html=1;rounded=0;" parent="1" edge="1">
          <mxGeometry relative="1" as="geometry">
            <mxPoint x="600" y="410" as="sourcePoint" />
            <mxPoint x="340" y="410" as="targetPoint" />
          </mxGeometry>
        </mxCell>
        <mxCell id="8q71euT7KvG-gEpUxB3Z-9" value="System outputs to user" style="edgeLabel;resizable=0;html=1;align=center;verticalAlign=middle;" parent="8q71euT7KvG-gEpUxB3Z-8" connectable="0" vertex="1">
          <mxGeometry relative="1" as="geometry" />
        </mxCell>
        <mxCell id="8q71euT7KvG-gEpUxB3Z-10" value="" style="endArrow=classic;html=1;rounded=0;entryX=0.004;entryY=0.417;entryDx=0;entryDy=0;entryPerimeter=0;" parent="1" edge="1">
          <mxGeometry relative="1" as="geometry">
            <mxPoint x="760" y="410" as="sourcePoint" />
            <mxPoint x="1041" y="410" as="targetPoint" />
          </mxGeometry>
        </mxCell>
        <mxCell id="8q71euT7KvG-gEpUxB3Z-11" value="Sysem Outputs to&amp;nbsp; Admin" style="edgeLabel;resizable=0;html=1;align=center;verticalAlign=middle;" parent="8q71euT7KvG-gEpUxB3Z-10" connectable="0" vertex="1">
          <mxGeometry relative="1" as="geometry" />
        </mxCell>
        <mxCell id="8q71euT7KvG-gEpUxB3Z-12" value="" style="endArrow=classic;html=1;rounded=0;entryX=1;entryY=0.375;entryDx=0;entryDy=0;entryPerimeter=0;" parent="1" target="kl3WKUfcu_TZl0TuVzoU-1" edge="1">
          <mxGeometry relative="1" as="geometry">
            <mxPoint x="1040" y="380" as="sourcePoint" />
            <mxPoint x="760" y="380" as="targetPoint" />
          </mxGeometry>
        </mxCell>
        <mxCell id="8q71euT7KvG-gEpUxB3Z-13" value="Admin Inputs" style="edgeLabel;resizable=0;html=1;align=center;verticalAlign=middle;" parent="8q71euT7KvG-gEpUxB3Z-12" connectable="0" vertex="1">
          <mxGeometry relative="1" as="geometry" />
        </mxCell>
      </root>
    </mxGraphModel>
  </diagram>
</mxfile>
